<?xml version="1.0" encoding="UTF-8" standalone="no"?>
<svg
   xmlns:dc="http://purl.org/dc/elements/1.1/"
   xmlns:cc="http://creativecommons.org/ns#"
   xmlns:rdf="http://www.w3.org/1999/02/22-rdf-syntax-ns#"
   xmlns:svg="http://www.w3.org/2000/svg"
   xmlns="http://www.w3.org/2000/svg"
   xmlns:sodipodi="http://sodipodi.sourceforge.net/DTD/sodipodi-0.dtd"
   xmlns:inkscape="http://www.inkscape.org/namespaces/inkscape"
   version="1.0"
   width="1373.2554"
   height="287.08792"
   id="5-cube.svg"
   sodipodi:docname="transform_cat.svg"
   inkscape:version="0.92.3 (2405546, 2018-03-11)">
  <metadata
     id="metadata235">
    <rdf:RDF>
      <cc:Work
         rdf:about="">
        <dc:format>image/svg+xml</dc:format>
        <dc:type
           rdf:resource="http://purl.org/dc/dcmitype/StillImage" />
        <dc:title></dc:title>
      </cc:Work>
    </rdf:RDF>
  </metadata>
  <defs
     id="defs233">
    <clipPath
       clipPathUnits="userSpaceOnUse"
       id="clipPath1120">
      <path
         style="opacity:0.4540005;fill:#5ac5c4;fill-opacity:1;stroke:none;stroke-width:1.04426229;stroke-linecap:round;stroke-linejoin:round;stroke-miterlimit:4;stroke-dasharray:none;stroke-opacity:1;paint-order:markers fill stroke"
         d="M 75.674651,18.587082 H 838.7702 c 0.0942,0 0.17003,0.07583 0.17003,0.170028 v 763.09555 c 0,0.0942 -0.0758,0.17003 -0.17003,0.17003 H 75.674651 c -0.09419,0 -0.170028,-0.0758 -0.170028,-0.17003 V 18.75711 c 0,-0.0942 0.07583,-0.170028 0.170028,-0.170028 z"
         id="path1122"
         inkscape:connector-curvature="0" />
    </clipPath>
    <style
       id="style1145">.cls-1{fill:#f3f4f6;}.cls-2{fill:#2d3c5b;}.cls-3{fill:#fff;}.cls-4{fill:#bd479a;}.cls-5{fill:#61bebf;}</style>
  </defs>
  <sodipodi:namedview
     pagecolor="#ffffff"
     bordercolor="#666666"
     borderopacity="1"
     objecttolerance="10"
     gridtolerance="10"
     guidetolerance="10"
     inkscape:pageopacity="0"
     inkscape:pageshadow="2"
     inkscape:window-width="1920"
     inkscape:window-height="1015"
     id="namedview231"
     showgrid="false"
     inkscape:zoom="0.59"
     inkscape:cx="370.68003"
     inkscape:cy="138.13341"
     inkscape:window-x="0"
     inkscape:window-y="0"
     inkscape:window-maximized="1"
     inkscape:current-layer="5-cube.svg"
     inkscape:snap-page="true"
     fit-margin-top="0"
     fit-margin-left="0"
     fit-margin-right="0"
     fit-margin-bottom="0" />
  <path
     style="fill:#4d4d4d;stroke-width:2.52157831"
     inkscape:connector-curvature="0"
     class="cls-5"
     d="m 644.49909,286.74346 c -10.08631,1.8912 -16.23896,-4.18583 -20.60131,-13.79305 -7.56473,-16.81893 -15.28075,-33.66306 -25.51835,-49.17077 -1.28601,-1.96684 -2.24423,-2.69808 -4.48841,-1.89116 a 62.43428,62.43428 0 0 1 -21.25691,3.0763 c -10.08632,-0.15137 -20.17264,1.73988 -30.25894,0.27738 -5.04317,-0.70603 -10.38891,-0.3278 -15.63378,-0.83214 -3.55544,-0.32779 -5.90049,2.87462 -7.56474,5.52228 a 88.759559,88.759559 0 0 1 -16.41547,18.58403 5.2700987,5.2700987 0 0 0 -0.9582,8.04384 64.04809,64.04809 0 0 0 10.64104,11.3723 c 2.1938,1.91642 4.51365,1.41211 7.06045,1.21037 6.30394,-0.52954 10.66624,3.93367 8.49769,8.37164 -0.42868,0.88255 -0.6808,2.06769 -1.76509,2.01726 -6.17787,-0.37824 -12.3053,1.86599 -18.58406,-1.36166 -10.33844,-5.32052 -18.58402,-13.1122 -26.87998,-20.82824 -7.26218,-6.78302 -7.21174,-8.87593 -2.52159,-17.65105 a 17.146732,17.146732 0 0 0 1.1347,-2.52156 c 0.83213,-2.52159 2.34507,-5.64834 0.15137,-7.56472 -2.52158,-2.52159 -4.33712,1.21034 -6.17789,2.52155 a 62.484712,62.484712 0 0 1 -32.52834,10.64107 c -3.85799,0.15136 -8.52294,-0.6556 -11.04451,3.35372 -3.98409,6.37959 -7.56475,12.9861 -6.02657,21.08037 0.35301,1.76513 1.61382,1.79033 2.82417,2.3703 a 5.824846,5.824846 0 0 1 3.58063,6.55608 c -0.52952,3.12677 -2.89981,4.05975 -5.87526,4.56406 -13.13745,2.19376 -16.71808,-6.10221 -15.53294,-15.12945 1.51295,-11.85143 4.38754,-23.47589 5.21968,-35.42819 0.1764,-2.52156 2.19375,-3.50499 3.73193,-4.91709 a 94.458327,94.458327 0 0 0 19.46657,-23.5263 37.974971,37.974971 0 0 0 5.04318,-15.83552 c 0.47911,-6.90912 4.76576,-12.22965 8.72465,-17.32325 3.20242,-4.08496 2.31986,-6.15265 -1.00862,-9.32982 a 132.7611,132.7611 0 0 1 -19.51707,-23.57677 c -8.01863,-12.38095 -5.32052,-32.20055 2.26941,-44.051969 5.04317,-7.741259 17.29804,-10.767144 26.6783,-7.110858 a 42.866832,42.866832 0 0 0 12.00273,3.782371 3.5302098,3.5302098 0 0 1 3.40411,2.698086 c 0.45389,1.865965 -0.9582,2.748528 -2.19376,3.706727 -4.41278,3.404123 -9.35505,2.975452 -14.34779,1.916389 -11.0445,-2.370281 -17.47453,2.899816 -17.14672,14.272144 a 29.653763,29.653763 0 0 0 8.44728,20.9291 c 11.67489,11.64969 25.21577,18.10493 42.21124,15.58336 a 68.082614,68.082614 0 0 1 23.07243,0.80691 c 19.39092,3.78236 38.47928,0.78168 57.51718,-1.94162 a 97.988536,97.988536 0 0 0 33.36049,-11.80101 6.2282985,6.2282985 0 0 0 3.65631,-5.90048 87.372689,87.372689 0 0 1 1.53814,-13.49046 c 0.75645,-4.23624 -2.69811,-9.2794 -4.46317,-13.9191 -1.08429,-2.874592 -2.5216,-5.572679 -3.65631,-8.472495 -1.23557,-3.505005 0.85734,-5.522259 3.6815,-3.731947 11.14537,7.009993 23.14809,5.5727 35.30211,4.564052 a 6.8586932,6.8586932 0 0 1 2.87459,0.226958 c 7.69081,2.748511 14.47387,2.319848 20.37435,-4.337135 a 7.0352034,7.0352034 0 0 1 8.54816,-1.588583 c 2.82415,1.61382 2.37028,5.043155 1.58859,7.388224 a 112.1598,112.1598 0 0 0 -5.04315,37.823676 c 0,4.81622 -4.23625,7.56473 -5.69879,11.72534 -2.52158,7.36302 -2.11811,14.8521 -2.52158,22.26554 a 48.74211,48.74211 0 0 1 -12.38094,29.90591 c -14.82687,16.51632 -18.78577,34.82299 -11.6497,55.70168 a 17.651048,17.651048 0 0 1 1.15994,5.64833 c 0,9.38026 5.92572,14.49907 13.18786,18.7101 2.89982,1.66426 6.17787,3.35371 5.19443,7.33779 -1.05905,4.41278 -5.04315,2.0425 -7.81686,2.69811 a 24.257582,24.257582 0 0 1 -5.06838,-0.22695 z"
     id="path1439" />
  <path
     style="fill:#4d4d4d;stroke-width:3.01745081"
     inkscape:connector-curvature="0"
     class="cls-5"
     d="m 1232.003,257.03445 c 14.9062,-19.04012 15.0873,-19.46256 19.372,-36.78272 a 367.37462,367.37462 0 0 0 22.2991,56.00387 c 4.0433,8.32818 23.2342,11.31543 28.3942,3.83219 a 6.7892644,6.7892644 0 0 0 -2.7158,-10.71196 c -16.2037,-4.58654 -15.2381,-18.49698 -17.1692,-30.41591 -2.1123,-12.82415 1.5087,-25.49746 2.776,-38.26128 a 273.13963,273.13963 0 0 1 9.7162,-51.50792 20.126396,20.126396 0 0 1 7.1815,-11.55682 c 12.0698,-9.05237 20.4885,-21.12218 29.2994,-32.73933 9.5654,-12.703494 19.6437,-24.622414 34.7611,-31.019384 a 11.104219,11.104219 0 0 0 6.9703,-8.75065 c 1.5088,-7.99623 -1.5993,-11.61717 -9.8369,-10.07827 -10.9533,2.05185 -20.9109,5.82368 -28.7262,14.72516 -9.0522,10.34989 -21.3936,16.77703 -32.7091,24.38102 -3.7115,2.50445 -5.1296,1.38801 -5.3409,-2.65534 a 6.3668212,6.3668212 0 0 0 0,-0.78458 c -1.2673,-7.09097 1.3277,-27.9114 4.3753,-35.12312 a 26.945837,26.945837 0 0 0 -6.6685,-30.38573 10.138635,10.138635 0 0 1 -3.6813,-12.76383 c 1.1768,-3.2588504 2.082,-7.6039704 -1.2975,-9.2635604 -2.5347,-1.20698 -5.5823,1.71994 -7.8756,4.10372 -9.0523,9.4747904 -27.7303,9.4747904 -36.8732,0.24142 -3.6209,-3.65111 -7.6643,-9.41445 -12.794,-6.90995005 -5.1297,2.50447005 -4.0736,9.53512045 -3.1683,15.08723045 3.4701,21.12216 0.5431,42.39519 0,63.54752 -0.3923,14.81571 -13.2466,26.251824 -27.7907,28.514904 -18.3461,3.01746 -30.9591,14.75532 -39.6192,29.63137 -14.6648,25.16554 -26.3725,51.86998 -30.5064,81.13927 -1.0561,7.21172 -0.6638,14.66482 -1.207,21.96704 -0.9957,12.64314 -6.9099,18.1047 -19.6737,18.79874 -12.7639,0.69401 -25.1354,-0.84489 -37.7182,1.05609 a 118.34442,118.34442 0 0 0 -30.4159,10.16883 179.17624,179.17624 0 0 1 -17.8331,6.03487 c -3.0175,0.99577 -6.6384,2.08203 -6.3065,5.88404 0.3319,3.80199 4.3753,4.16411 7.3928,4.40547 a 54.615858,54.615858 0 0 0 26.8251,-4.2546 73.987893,73.987893 0 0 1 43.4815,-6.72891 c 10.7723,1.78031 21.9972,0.96557 33.0109,0.81472 a 198.27668,198.27668 0 0 1 30.1745,3.43989 237.98635,237.98635 0 0 0 60.3489,1.1768 c 6.035,-7.63415 14.4235,-2.05185 21.605,-3.37955 4.1339,-0.75436 8.6601,-0.45261 9.5955,-6.03489 0.9354,-5.5823 -1.5389,-8.20747 -6.578,-9.80672 a 106.39531,106.39531 0 0 1 -11.0741,-5.03914 z"
     id="path1441" />
  <path
     style="fill:#4d4d4d;stroke-width:2.81679726"
     inkscape:connector-curvature="0"
     class="cls-5"
     d="m 921.17538,270.19402 c 1.2112,0 2.1126,-0.28167 3.014,-0.33802 3.2394,-0.2253 7.6336,1.71825 8.9574,-2.67594 1.3239,-4.39421 -2.8168,-6.61948 -5.6335,-9.46446 -2.8168,-2.84493 -9.1264,-1.12672 -9.0982,-6.5068 a 33.632557,33.632557 0 0 1 3.1547,-11.2672 34.364925,34.364925 0 0 0 0.9014,-22.39352 c -5.0139,-16.90078 -1.1831,-32.95651 4.9294,-48.6461 3.0985,-7.99969 5.6336,-16.11209 8.0278,-24.33711 a 50.702347,50.702347 0 0 0 0.2254,-28.95669 18.985212,18.985212 0 0 1 1.2675,-14.08396 29.238353,29.238353 0 0 0 0.5915,-23.576603 23.830103,23.830103 0 0 1 0.8451,-21.182342 32.449505,32.449505 0 0 0 3.0421,-18.140152 c -0.7042,-0.197296 -1.0421,-0.366176 -1.1548,-0.281694 -18.1402,17.520512 -40.8718,10.42218 -61.9696,11.267204 -5.2392,0.197053 -8.7884,-4.901222 -13.0136,-7.718019 -2.3098,-1.521067 -4.6477,-5.323754 -7.2391,-3.549185 -2.5915,1.774616 -0.1974,5.464601 0.2534,8.253234 0.6479,3.830841 2.1127,7.577182 2.4507,11.408013 0.4507,4.95756 1.0422,9.717955 -1.7464,14.788188 -3.8872,7.013804 -2.8168,15.295212 -2.2253,23.097722 a 23.013233,23.013233 0 0 1 -2.8168,11.774234 116.19289,116.19289 0 0 1 -17.29519,26.6469 91.12339,91.12339 0 0 0 -21.26682,51.46288 9.2672625,9.2672625 0 0 1 -2.05624,6.08428 c -11.99956,12.81645 -12.81644,28.53417 -11.6052,44.75891 0.73235,9.60528 0.7042,9.83061 -8.95744,9.94331 a 45.632115,45.632115 0 0 1 -8.76023,-0.76056 c -3.4365,-0.64784 -8.0842,0 -8.84472,-4.84488 a 11.633372,11.633372 0 0 1 5.80261,-12.53474 c 2.81679,-1.60556 5.97159,-2.81678 7.32364,-5.85894 1.35208,-3.04213 2.22527,-6.53498 -2.81676,-6.92933 -11.26721,-0.81685 -22.5344,0.50704 -28.8722,10.59117 a 29.379195,29.379195 0 0 0 -1.80275,30.73125 23.858272,23.858272 0 0 0 20.59077,13.26712 96.249954,96.249954 0 0 0 29.94258,-1.32391 9.1545909,9.1545909 0 0 1 6.22512,1.18308 c 8.6194,3.77448 18.08383,4.7322 27.06942,7.46451 7.12651,2.1971 15.09811,-2.22528 23.01321,-1.63375 4.6478,0.33803 8.4504,0.53517 10.9574,5.2674 2.0844,4.14069 6.1124,5.04205 10.4785,5.63359 12.3375,1.46475 23.9427,-3.38014 36.1395,-3.85902 9.0419,-0.53517 3.6055,-7.85884 1.9717,-12.76007 z"
     id="path1447" />
  <path
     style="fill:#4d4d4d;stroke-width:2.25866103"
     inkscape:connector-curvature="0"
     class="cls-5"
     d="m 239.09302,244.49022 c -1.67141,4.51734 -3.29766,9.17018 -5.0594,13.73266 -1.76175,4.56249 1.46812,6.48236 4.02041,8.85396 3.81714,3.50093 3.50092,5.62406 -1.19708,7.63427 -8.37965,3.5687 -13.41646,0 -13.6649,-8.85394 -0.47433,-15.67512 -2.93627,-31.2147 -2.7104,-46.93496 0,-3.00405 -1.55847,-3.72682 -4.17854,-3.25249 -9.82517,1.85209 -19.65035,3.65902 -29.61104,4.83353 -4.40438,0.51949 -7.47616,4.04301 -10.86415,6.77598 -3.388,2.73297 -4.2011,6.09837 -4.81096,10.50276 -0.72276,5.08201 -6.41457,7.97308 -10.00587,11.74504 -1.35518,1.40038 -3.1847,2.25867 -4.51731,3.81713 -5.94029,6.776 -5.21751,9.39604 3.2073,12.06127 4.85613,1.55848 9.28309,4.65284 14.88457,1.17452 2.37159,-1.46813 5.78217,0.51948 8.17636,2.25865 3.02661,2.14572 1.87468,6.93408 -1.98763,8.35702 a 24.032155,24.032155 0 0 1 -12.8066,0.85831 c -10.36725,-1.96504 -20.91521,-3.32024 -30.87589,-7.00185 -7.38583,-2.73298 -8.1086,-4.51733 -4.51734,-11.29331 1.5359,-2.98142 1.15191,-4.2011 -2.39416,-4.29145 -4.13337,0 -8.24413,-0.60982 -12.35489,-0.74535 -3.61386,-0.13559 -5.10457,1.5133 -3.74937,5.17234 1.49073,4.06558 2.80074,8.17633 4.29145,12.21934 1.15193,3.07179 1.73919,6.77598 6.64047,3.29764 2.25867,-1.55847 8.51515,3.00403 8.87653,5.91772 0.60986,4.92388 -2.8459,5.30783 -6.39202,5.48853 -15.22334,0.72276 -13.55195,0.76795 -19.35671,-10.16398 A 218.25441,218.25441 0 0 1 96.842547,250.18205 c -3.07179,-8.46997 -1.69399,-10.32209 7.092183,-12.37745 2.66523,-0.60986 5.35303,-1.24228 2.25867,-4.72061 a 10.367254,10.367254 0 0 1 -2.14572,-5.39819 c -0.3388,-1.89729 -0.6776,-3.81715 -1.10674,-6.27909 a 31.621256,31.621256 0 0 0 -6.775983,9.03465 c -19.17606,30.94363 -48.13209,40.65589 -82.66703,38.21655 a 22.270399,22.270399 0 0 1 -6.2564702,-1.5359 c -8.2441,-3.09436 -9.39602,-7.36324 -3.72679,-13.89076 a 25.025965,25.025965 0 0 1 8.2667102,-7.4084 2.6426335,2.6426335 0 0 1 3.25246,0.29362 c 1.03898,1.06158 0.56467,2.25865 -0.11292,3.20729 -1.69401,2.55229 -3.45578,5.10459 -5.4208002,7.99566 21.8638302,4.31406 41.2205602,1.24226 57.5958702,-14.3425 a 99.15522,99.15522 0 0 0 20.75708,-26.11011 c 6.05321,-11.69987 14.658713,-21.81868 22.586633,-32.32145 7.63427,-10.16396 20.71189,-12.08385 31.62122,-17.23356 a 16.059079,16.059079 0 0 1 3.36542,-1.0164 104.05651,104.05651 0 0 0 27.10392,-9.17018 54.207865,54.207865 0 0 1 31.37281,-6.00803 c 6.77598,0.74536 12.44522,-3.09437 18.92758,-3.32025 5.28528,-0.18065 10.54795,-1.24226 15.81063,0.31623 2.37159,0.72278 4.15593,-0.58727 6.03064,-1.64883 a 42.417655,42.417655 0 0 1 19.46964,-6.07581 c 4.13337,-0.13558 6.34685,-2.05539 9.30569,-4.51733 a 13.800419,13.800419 0 0 0 5.64667,-13.00986 11.451411,11.451411 0 0 1 2.14572,-6.64048 c 3.47833,-5.71441 6.00802,-5.96286 11.29328,-1.78435 2.77817,2.25867 4.0656,7.31809 9.8252,4.29147 3.45575,-1.80693 7.86014,-1.51331 10.59311,-5.28526 a 27.239454,27.239454 0 0 1 7.99566,-6.77598 c 0.88088,-0.5421 1.78434,-1.10676 2.6878,-0.42915 0.90348,0.67759 0.5195,1.91986 0,2.64262 -5.05939,6.95668 -6.30165,13.07765 0.72278,20.32796 2.59746,2.64261 4.51733,7.13736 7.00185,10.57053 a 7.1599556,7.1599556 0 0 1 0.29362,8.69585 c -1.37777,2.25866 -3.02658,4.5173 -4.31403,6.88891 -1.76175,3.32023 -5.12716,3.00403 -8.35706,2.25866 -11.42883,-2.89109 -15.29114,-1.51331 -22.06712,7.83755 a 68.211564,68.211564 0 0 0 -8.46997,16.0365 c -2.43936,6.48236 -5.737,12.12902 -11.69987,15.81063 -9.39601,5.71441 -12.85177,16.08166 -19.31155,24.07732 a 2.5748735,2.5748735 0 0 0 -0.51948,1.67143 c 0.90346,15.58475 -1.46814,31.48571 4.35921,46.59615 0.81312,2.12315 1.44553,4.38181 4.99164,3.27507 a 5.624066,5.624066 0 0 1 7.43101,4.7206 c 0.63242,4.043 -2.62005,5.80476 -6.41461,5.82734 a 76.433086,76.433086 0 0 1 -9.37343,-0.49689 c -1.06157,-0.1356 -2.75557,-0.8357 -2.93628,-1.58107 -1.55848,-6.00803 -7.09219,-10.36724 -8.31188,-15.81062 -1.87467,-7.54393 -7.5665,-13.21317 -7.5665,-21.09591 z"
     id="path1451" />
</svg>
